<svg version="1.1" id="Layer_1" xmlns="http://www.w3.org/2000/svg" xmlns:xlink="http://www.w3.org/1999/xlink" x="0px" y="0px"
	 width="100%" viewBox="0 0 434 434" enable-background="new 0 0 434 434" xml:space="preserve">
<path fill="#FEFFFF" opacity="1.000000" stroke="none"
	d="
M1.000000,147.000000
	C1.000000,98.013962 1.000000,49.527931 1.000000,1.020948
	C145.611038,1.020948 290.222076,1.020948 434.916565,1.020948
	C434.916565,145.569351 434.916565,290.138763 434.916565,434.854065
	C290.333435,434.854065 145.666733,434.854065 1.000000,434.854065
	C1.000000,339.111298 1.000000,243.305649 1.000000,147.000000
M248.817551,210.653305
	C248.563858,210.815552 248.310165,210.977798 247.757645,211.899673
	C247.502197,214.847137 246.974503,217.801315 247.047043,220.740692
	C247.206024,227.182617 247.909409,233.615051 247.962250,240.054886
	C248.109100,257.953766 248.016052,275.854492 248.085205,293.754242
	C248.091965,295.504333 248.565536,297.252686 248.898010,299.935333
	C248.858414,310.344513 248.776810,320.753906 248.835037,331.162537
	C248.841919,332.395294 249.614182,333.623749 250.774826,335.092041
	C267.510956,327.929199 284.296021,320.875793 300.912506,313.445374
	C302.703705,312.644379 304.553619,309.682129 304.606079,307.676086
	C304.853424,298.220215 304.483887,288.748138 304.712128,278.555054
	C304.709381,277.740479 304.706635,276.925903 305.007751,275.202850
	C305.039581,249.498932 305.083282,223.795013 305.058929,198.091156
	C305.057983,197.084412 304.406128,196.078308 303.632660,194.908264
	C303.632660,194.908264 303.188568,194.807922 303.134674,193.944611
	C303.060913,191.625839 302.987152,189.307083 303.060181,186.234634
	C303.555786,182.165405 301.322998,183.074402 298.545319,183.714951
	C293.278503,181.659866 292.354279,186.497406 289.568420,189.569595
	C287.707275,190.684006 285.846100,191.798416 283.844025,192.194580
	C280.625061,189.822266 279.831451,191.232971 279.772919,194.963226
	C278.212311,195.722702 276.651733,196.482178 274.702087,196.646057
	C273.802185,197.429413 272.902252,198.212769 271.450989,199.437164
	C268.429932,200.939545 265.408905,202.441925 262.168793,203.308975
	C261.782532,203.886261 261.396301,204.463547 260.468506,205.466492
	C258.193878,206.520172 255.919266,207.573853 253.112701,208.217789
	C252.545532,208.076401 251.978378,207.935028 251.411209,207.793655
	C251.607132,208.527969 251.803070,209.262299 251.905609,210.311401
	C251.905609,210.311401 251.880188,210.638748 251.319031,210.802841
	C250.943039,210.899414 250.567062,210.995987 249.589645,211.020111
	C249.388428,211.016891 249.187195,211.013657 249.001694,211.003143
	C249.001694,211.003143 248.989182,211.020004 248.817551,210.653305
M369.780121,305.128632
	C370.009033,304.904388 370.207825,304.656006 370.766571,304.109528
	C370.991943,303.884827 371.191498,303.639160 371.987244,303.121277
	C381.331635,292.753143 390.676056,282.385040 400.418457,271.775513
	C400.675293,271.582550 400.853790,271.333466 401.565369,270.735565
	C402.146057,269.572571 402.726746,268.409607 403.832275,266.789032
	C404.896759,264.509308 405.961243,262.229553 407.022644,259.266876
	C406.637238,258.662750 406.251831,258.058594 405.866425,257.454437
	C404.932678,258.672913 403.998901,259.891388 402.789581,261.739471
	C397.519287,265.810486 391.345032,268.844147 387.353546,274.886017
	C387.353546,274.886017 386.959961,274.970581 386.362457,274.712646
	C385.579254,275.482056 384.796082,276.251495 383.623718,277.481567
	C383.095459,277.765564 382.567169,278.049561 381.992859,277.695007
	C381.596863,277.290588 381.200867,276.886139 380.804871,276.481720
	C380.882385,277.335083 380.959869,278.188416 380.649109,279.530670
	C379.791718,280.122803 378.934326,280.714935 377.682404,280.643158
	C376.460876,280.427765 375.239380,280.212372 373.277222,279.968658
	C372.237579,278.666016 371.197937,277.363403 370.844879,275.740997
	C373.570435,273.734283 376.295959,271.727570 379.450775,269.750275
	C379.779785,269.588837 379.857635,269.346588 380.153442,268.507782
	C380.288513,268.068176 380.423584,267.628571 381.079407,266.631042
	C381.265350,260.759399 381.451263,254.887741 381.845856,248.283752
	C381.801483,247.527054 381.757080,246.770370 381.967621,245.242477
	C382.014771,244.161453 382.061951,243.080429 382.593018,241.335510
	C382.677551,236.199829 382.762085,231.064163 382.971649,225.005936
	C382.926636,213.338654 382.881622,201.671387 382.990662,189.077545
	C383.000885,163.682449 383.027313,138.287338 382.981934,112.892342
	C382.979156,111.331894 382.409180,109.772461 381.750488,107.636429
	C375.422607,111.283073 369.091125,114.923599 362.801361,118.634918
	C362.707581,118.690269 363.132690,119.625069 362.915192,120.676804
	C361.958466,121.197502 361.001740,121.718201 360.018707,121.577141
	C359.916351,121.003334 359.813995,120.429527 359.711639,119.855728
	C359.543091,119.862389 359.374542,119.869049 359.205963,119.875710
	C359.138214,120.909065 359.070435,121.942421 358.573029,123.135025
	C358.573029,123.135025 358.115021,123.121399 357.862946,122.603310
	C357.468170,122.267853 357.073364,121.932388 356.678589,121.596931
	C356.538940,121.817841 356.399292,122.038757 356.259644,122.259666
	C356.873016,122.542336 357.486389,122.824997 357.762756,123.663605
	C356.263275,124.494064 354.763794,125.324532 352.561798,126.024132
	C350.222626,125.234352 348.727600,125.541618 349.098175,128.944504
	C348.739197,129.202057 348.380219,129.459610 347.891113,129.146713
	C347.314758,129.540527 346.738403,129.934341 345.880005,130.541718
	C345.880005,130.541718 345.538147,130.450607 344.979950,130.114029
	C344.454926,130.089844 343.929871,130.065659 343.404846,130.041458
	C344.044220,130.336884 344.683563,130.632309 345.054352,131.453506
	C344.715729,131.642258 344.377136,131.831009 343.614838,132.155167
	C343.343811,132.300797 343.147339,132.514862 342.551483,133.019180
	C342.383057,133.064545 342.214600,133.109924 341.830383,132.612762
	C340.886475,133.074570 339.942596,133.536377 338.258087,134.003876
	C337.502289,134.975922 336.746521,135.947952 335.568939,137.150986
	C335.568939,137.150986 335.107269,137.285751 334.789490,136.718643
	C334.185455,137.428635 333.581451,138.138611 332.546570,139.079330
	C332.546570,139.079330 332.078979,139.221558 331.842163,138.814056
	C331.562073,139.202499 331.281982,139.590942 330.374115,140.226227
	C329.935303,140.223877 329.496460,140.221512 329.020905,139.672363
	C328.929504,139.401611 328.838135,139.130875 328.746735,138.860123
	C328.598236,138.987335 328.304840,139.196320 328.323425,139.229233
	C328.532288,139.599304 328.789093,139.942291 329.132355,140.864853
	C329.005859,141.230530 328.879333,141.596191 328.173798,141.977051
	C327.786499,141.979614 327.399200,141.982162 326.894531,141.702728
	C326.802948,141.654877 326.711365,141.607010 326.619781,141.559143
	C326.741241,141.710358 326.862671,141.861572 326.978516,142.451843
	C326.978516,142.451843 326.970490,142.890884 326.910034,143.270691
	C326.910034,143.270691 326.917480,143.655182 326.259979,143.767670
	C325.816437,143.800171 325.372894,143.832672 324.621246,143.431686
	C324.092316,143.659027 323.563416,143.886368 323.053894,145.036743
	C323.094055,155.019073 323.134216,165.001419 323.032318,175.913376
	C323.083252,195.950272 323.134216,215.987152 323.052948,236.949982
	C323.035828,250.331879 322.969879,263.714020 323.038025,277.095490
	C323.053802,280.195190 323.527313,283.292572 323.704315,287.252747
	C323.866364,290.842682 324.028412,294.432617 324.135468,298.720642
	C324.464569,302.777100 326.520782,301.485596 328.779114,300.344513
	C332.439056,298.495178 336.198120,296.841919 340.298767,295.810303
	C340.863586,298.565491 341.428406,301.320679 342.014618,304.740723
	C342.019958,305.184265 342.025299,305.627777 341.622314,306.518005
	C340.750458,307.013458 339.878571,307.508942 338.570221,308.107300
	C338.287384,308.246246 338.090759,308.463287 337.536011,309.044739
	C337.370422,309.104828 337.204803,309.164948 336.925598,308.558838
	C335.593048,308.602936 334.013275,308.197296 332.971375,308.770111
	C328.783295,311.072418 324.635071,313.499756 320.747803,316.268005
	C319.406830,317.223022 318.868835,319.305542 317.552612,321.193573
	C317.397766,321.272644 317.242920,321.351685 316.882812,320.771942
	C313.704010,319.402771 310.678009,321.413055 308.596832,326.353333
	C308.434784,326.427063 308.272736,326.500793 307.864471,325.902893
	C304.738708,326.942413 301.456299,327.657349 298.514130,329.077271
	C285.279236,335.464539 272.153259,342.076935 258.961823,348.554901
	C253.663483,351.156738 248.297913,353.621613 242.225327,356.171936
	C225.190262,361.483429 208.169052,366.839844 191.115967,372.092804
	C176.338806,376.644623 161.247971,379.159760 145.732895,379.244476
	C143.137039,379.258636 140.550201,380.922729 137.534348,381.983521
	C137.534348,381.983521 137.087662,382.062897 136.260895,381.906799
	C134.861404,381.922455 133.461929,381.938141 131.726349,381.186310
	C129.013733,381.464508 126.301109,381.742706 123.106155,382.419220
	C124.190399,383.322449 125.274635,384.225677 126.850922,385.679352
	C131.311356,387.859528 135.879257,389.846039 140.214493,392.251770
	C165.424820,406.241760 192.159409,416.204987 220.200638,422.735260
	C221.728439,423.091064 223.401276,422.824097 225.679413,423.202332
	C228.125565,423.133667 230.571716,423.065002 233.499329,423.365662
	C234.576309,423.037964 235.843338,422.969513 236.700104,422.341431
	C243.344376,417.470459 249.909454,412.491516 257.023071,407.347443
	C257.397491,406.949188 257.771912,406.550964 258.720398,406.000580
	C259.237000,405.425812 259.753601,404.851013 260.141144,404.183868
	C260.141144,404.183868 260.205658,404.328888 260.822327,404.262909
	C261.260895,403.862366 261.699493,403.461823 262.608002,402.987671
	C262.909393,402.813354 263.069061,402.552338 263.701080,402.050598
	C264.643066,401.278229 265.585052,400.505859 266.639130,399.601227
	C266.639130,399.601227 266.780334,399.500671 267.289520,399.207275
	C268.322632,398.290222 269.355743,397.373169 270.915131,396.259674
	C271.300842,395.865875 271.686554,395.472076 272.695557,395.001678
	C273.557220,394.112122 274.418884,393.222565 275.849945,392.196106
	C276.242493,391.807495 276.635040,391.418915 277.551361,390.932220
	C277.719727,390.638702 277.888092,390.345184 278.712402,389.885712
	C284.457153,384.838531 290.201874,379.791351 296.576172,374.538849
	C297.940704,373.530548 299.305206,372.522247 301.023987,371.298248
	C301.244598,371.116821 301.406830,370.893097 302.104858,370.319611
	C303.928680,368.770203 305.752533,367.220825 308.163513,365.343872
	C311.015015,362.746094 313.866486,360.148346 316.971802,357.396942
	C316.971802,357.396942 317.114746,357.133453 317.716583,356.840668
	C320.275177,354.378937 322.833740,351.917206 325.956268,349.188965
	C326.819885,348.330963 327.683533,347.472961 329.149078,346.316193
	C337.489777,338.217987 345.830475,330.119812 354.751190,321.732330
	C357.477417,318.781372 360.203644,315.830383 363.539368,312.640320
	C364.343140,311.421051 365.146881,310.201813 365.981018,308.981354
	C365.981018,308.981354 365.980774,308.950897 366.631287,308.931152
	C367.220825,308.082245 367.810394,307.233337 368.778107,306.110138
	C369.014160,305.901001 369.214905,305.662170 369.780121,305.128632
M334.007568,44.992756
	C334.007568,44.992756 334.080933,44.945091 334.103455,44.466194
	C334.103455,44.466194 334.011017,43.995766 333.967285,43.522522
	C333.967285,43.522522 333.937408,43.048203 334.608429,43.069241
	C335.562134,43.210835 336.515839,43.352428 337.469543,43.494026
	C334.822052,41.545208 333.101379,37.204624 328.503754,39.561756
	C327.655548,39.380806 326.807373,39.199860 325.917053,38.603863
	C325.917053,38.603863 325.849213,38.192528 325.922821,37.546642
	C325.216766,37.091461 324.510742,36.636280 323.044067,36.155525
	C321.104248,35.741001 319.164398,35.326477 317.094177,34.462875
	C317.094177,34.462875 316.997070,34.005440 316.921051,33.278576
	C316.030518,30.795605 315.050171,28.520266 311.274628,31.043800
	C310.197906,30.676842 309.121155,30.309881 308.341156,29.474106
	C308.801270,29.062281 309.261414,28.650454 310.589783,27.461523
	C308.047668,27.757275 306.497009,27.937675 304.170959,28.069677
	C302.167847,27.666498 300.164703,27.263317 297.746368,26.306890
	C295.834381,25.533875 293.922424,24.760860 292.216400,23.471645
	C292.319489,22.898125 292.422577,22.324604 292.525635,21.751080
	C292.005341,22.216635 291.485077,22.682190 290.312347,23.097397
	C289.877594,23.061382 289.442841,23.025366 289.259338,22.372299
	C290.200806,18.558746 286.747620,19.236473 285.040649,18.699795
	C283.942474,18.354523 282.362579,19.541344 280.254761,20.040352
	C279.512268,19.999136 278.769806,19.957922 277.914154,19.290787
	C277.264709,18.867498 276.615265,18.444212 275.230316,18.089991
	C273.801758,18.110933 272.350586,18.305998 270.948334,18.124035
	C262.973846,17.089211 255.011002,15.964367 246.989685,14.101856
	C246.268127,13.393323 245.583572,12.114613 244.819229,12.064993
	C237.654572,11.599880 230.477356,11.253816 223.300171,11.165535
	C222.551147,11.156321 221.778900,13.033480 220.164154,14.052921
	C211.444366,15.359396 202.724564,16.665871 193.271301,17.962496
	C192.161697,18.278227 191.052109,18.593956 189.309647,18.938690
	C188.887878,18.920866 188.466110,18.903042 187.695557,18.410963
	C186.551270,18.121227 185.667389,15.587503 184.144592,18.208773
	C183.619385,19.112850 182.091141,19.434214 180.384644,19.691303
	C175.874313,17.028439 169.528702,19.359907 168.217300,24.045769
	C166.153900,24.706011 164.090500,25.366253 161.528427,25.829060
	C161.013245,26.203327 160.498062,26.577595 159.263062,27.087683
	C157.173752,27.748741 155.084457,28.409801 153.198196,28.480520
	C152.243057,28.241962 150.829712,27.490765 150.417267,27.859400
	C149.093384,29.042671 148.139496,30.639908 146.428879,32.364841
	C144.967590,32.973366 143.506317,33.581890 141.848984,33.648563
	C140.524185,33.682095 139.199371,33.715626 137.874573,33.749161
	C137.954147,34.516472 138.033722,35.283779 137.715958,36.578789
	C136.163116,37.432636 134.610275,38.286484 132.783142,38.549965
	C127.902046,36.310337 128.713547,40.464432 127.330383,43.157749
	C126.237572,43.457825 125.144760,43.757896 123.821304,43.550026
	C123.432236,43.230408 123.043167,42.910789 122.654099,42.591171
	C122.520126,42.812851 122.386162,43.034531 122.252190,43.256210
	C122.854248,43.517124 123.456299,43.778038 123.783516,44.540955
	C123.259407,44.743134 122.735291,44.945312 121.392426,45.052780
	C118.217400,45.406235 115.405960,46.212658 114.743713,50.692230
	C112.799965,51.774109 110.856216,52.855984 108.338066,53.709175
	C104.221985,52.760544 104.477676,55.261456 104.590797,58.239376
	C104.339745,58.456528 104.170288,58.725155 103.570312,59.113518
	C103.399452,59.132538 103.228600,59.151554 102.708740,58.600147
	C102.021126,58.556416 101.333519,58.512688 100.645905,58.468956
	C100.891815,59.047142 101.137718,59.625328 101.132668,60.838940
	C99.115456,62.616985 97.098244,64.395027 94.687752,65.693130
	C87.704597,68.399986 83.442162,74.150391 78.307877,79.886078
	C79.794960,79.972855 80.594925,80.019531 81.056923,80.628067
	C80.085342,81.778915 79.113754,82.929764 77.328995,84.025650
	C73.037651,84.679382 70.976166,87.545197 72.074173,91.660400
	C71.528587,92.192505 70.983002,92.724609 69.671890,93.134583
	C68.823578,94.772743 67.975273,96.410904 66.880844,98.679008
	C65.612694,100.481232 64.344551,102.283463 62.947887,103.775459
	C62.855316,103.716934 62.762749,103.658409 62.670177,103.599884
	C62.808468,103.758736 62.946762,103.917587 63.029350,104.537300
	C63.029350,104.537300 62.842896,104.962425 62.236439,104.925835
	C61.482830,104.983818 60.272232,104.765800 60.045147,105.141792
	C57.282867,109.715393 54.665279,114.376381 51.596508,119.373367
	C51.046906,121.346603 50.497299,123.319839 49.335796,125.442970
	C48.816143,126.559906 48.296490,127.676842 47.271191,129.083191
	C47.048470,129.617401 46.825748,130.151627 46.185211,131.078583
	C45.980797,131.608871 45.776382,132.139160 45.124466,133.204956
	C44.661781,134.729202 44.199097,136.253433 43.223282,138.301254
	C42.515690,141.541138 41.808098,144.781021 40.743038,148.652756
	C40.119560,150.747070 39.496082,152.841370 38.266087,155.401062
	C36.905140,161.943619 35.544197,168.486191 33.920437,175.621826
	C33.004181,186.088654 32.087925,196.555466 31.034883,207.946304
	C31.069542,213.619858 31.104202,219.293396 30.988089,225.726364
	C30.731993,231.192566 30.181673,236.707642 33.473644,242.103073
	C33.441551,242.662308 33.409458,243.221542 32.813602,244.053085
	C33.201214,246.900238 33.405666,249.786713 34.007351,252.587891
	C37.018738,266.607483 40.781315,280.382690 47.943924,293.745605
	C57.458870,314.003601 69.507484,332.510559 85.298111,348.512360
	C90.401329,353.683807 94.612869,358.962097 103.458481,358.322052
	C114.430099,357.528229 125.540871,358.825195 136.592896,358.868256
	C139.728882,358.880493 142.869629,357.669891 146.904327,356.959290
	C148.061447,356.927917 149.240433,356.737518 150.371902,356.892883
	C155.085358,357.540222 156.395752,355.362976 156.160828,350.921967
	C155.794388,343.994415 155.919220,337.040863 155.822067,329.419281
	C155.207565,329.290039 154.593063,329.160797 153.549072,328.527252
	C151.407867,326.927551 149.266678,325.327850 146.820663,323.116699
	C143.522598,320.428741 140.224533,317.740784 137.058990,314.311157
	C132.710770,309.526459 128.362534,304.741760 123.996773,299.990173
	C123.996773,299.990173 124.033569,299.990387 123.918472,299.453705
	C123.610359,299.283569 123.302246,299.113434 122.917740,298.308289
	C121.564529,297.888641 120.211319,297.469025 118.352386,296.677551
	C118.006668,296.155853 117.660950,295.634125 118.035446,295.059479
	C118.472458,294.601074 118.909470,294.142670 119.346466,293.684235
	C118.516418,293.928284 117.686378,294.172363 116.221039,293.867401
	C115.610321,292.659576 114.999596,291.451782 114.942940,290.670959
	C115.329544,290.670959 115.716141,290.670959 116.102745,290.670959
	C116.108673,290.524323 116.114601,290.377686 116.120529,290.231049
	C115.538780,290.193146 114.957039,290.155212 113.767426,290.294800
	C112.722359,288.993927 111.677284,287.693024 110.369102,285.773010
	C109.692322,284.592560 109.015541,283.412140 108.990303,282.077240
	C109.355553,281.826599 109.720810,281.575928 110.151016,280.610138
	C109.771797,280.062897 109.392578,279.515686 108.997910,279.002228
	C108.997910,279.002228 109.034119,278.994049 108.923134,278.441406
	C108.617393,278.282562 108.311646,278.123718 107.995323,278.004517
	C107.995323,278.004517 108.036255,278.001068 108.179543,277.353668
	C107.792664,276.891968 107.405785,276.430267 107.002556,275.999664
	C107.002556,275.999664 107.037170,275.991882 107.105644,275.242035
	C104.768608,271.135376 102.431564,267.028717 99.907852,262.282043
	C99.003357,261.493378 98.098862,260.704712 97.111504,259.201019
	C97.177841,258.248322 97.244179,257.295654 97.697891,256.060699
	C97.630653,255.780914 97.563423,255.501129 97.496185,255.221344
	C97.315544,255.463791 97.134903,255.706223 96.348518,255.587341
	C96.213531,254.699402 96.078537,253.811447 96.287560,253.146103
	C96.366005,252.934036 96.444458,252.721985 96.522911,252.509918
	C96.354019,252.682373 96.185127,252.854843 95.405273,252.717636
	C94.846817,251.484879 94.288361,250.252136 94.110100,248.476105
	C94.344185,247.658188 94.578270,246.840271 94.826370,245.518875
	C94.543907,245.441345 94.261444,245.363815 93.441185,244.964600
	C93.556328,243.989273 93.671471,243.013931 93.812599,241.530563
	C93.527962,241.446716 93.243324,241.362869 92.414291,240.860138
	C91.881943,237.956268 91.349594,235.052399 90.938805,231.217987
	C90.620750,221.476669 90.302696,211.735336 90.395164,201.579575
	C90.510544,201.013367 90.625916,200.447174 90.989082,199.029190
	C91.686104,192.010254 92.383118,184.991333 92.984520,177.986588
	C92.984520,177.986588 92.992348,178.082932 93.392479,177.885773
	C93.692955,177.729095 93.826897,177.482147 93.961853,176.330200
	C94.671196,173.554321 95.380531,170.778427 96.600639,167.487869
	C98.120514,163.375153 99.640388,159.262436 101.655045,154.665909
	C104.402603,149.606125 107.256714,144.599762 109.835098,139.455185
	C110.645515,137.838165 110.715317,135.849991 111.742081,133.771515
	C113.877777,131.533020 116.013474,129.294510 118.703217,126.677589
	C120.586426,124.240608 122.469627,121.803635 124.747757,119.095680
	C125.007843,118.895332 125.205368,118.645508 125.780746,118.032654
	C125.932182,117.713882 126.083626,117.395119 126.883125,116.907928
	C127.192917,115.933205 127.502708,114.958481 128.132324,113.520363
	C128.454849,113.061340 128.777374,112.602318 129.695251,111.797150
	C136.132843,106.877991 142.570435,101.958839 149.724899,97.000259
	C154.823914,94.516869 159.922928,92.033478 165.681793,89.344269
	C166.135559,88.909554 166.589325,88.474838 167.003342,87.999001
	C167.003342,87.999001 167.018143,88.054184 167.739487,88.210556
	C169.830475,87.335945 171.921448,86.461334 174.804413,85.437759
	C175.848312,85.199486 176.892227,84.961212 178.278229,85.352638
	C179.547714,86.736473 180.817184,88.120300 182.580383,90.042328
	C185.154785,88.865143 188.079193,87.527916 191.541901,86.028076
	C191.719345,85.968773 191.896774,85.909477 192.922150,85.935593
	C195.919312,85.565544 198.916458,85.195488 202.515976,84.926392
	C203.004578,84.647652 203.493164,84.368919 204.780151,84.149117
	C205.554932,84.008003 206.329727,83.866890 207.923737,83.792900
	C209.544235,83.636436 211.164749,83.479973 213.489609,83.627441
	C214.646988,83.303177 215.804352,82.978920 217.872818,82.642906
	C220.896606,82.643700 223.920395,82.644493 227.675720,82.956383
	C228.461716,82.920418 229.247696,82.884453 230.508179,83.008957
	C230.662506,82.945267 230.816833,82.881569 231.494415,83.037468
	C231.676758,82.987114 231.859085,82.936760 232.766190,83.213280
	C236.175293,83.408234 239.584412,83.603195 243.789871,83.985863
	C246.210297,84.251907 248.630707,84.517952 251.687073,85.113953
	C253.822235,85.425934 255.957397,85.737915 258.692810,86.428604
	C259.151886,86.521164 259.610992,86.613724 260.590515,87.176277
	C262.421692,87.587975 264.252869,87.999672 266.698151,88.711655
	C267.150146,88.733223 267.602112,88.754791 268.579163,89.248337
	C272.408600,90.695267 276.238037,92.142197 280.659485,94.017403
	C288.110046,97.899124 295.534485,101.832512 303.029694,105.625999
	C304.887604,106.566315 306.975037,107.053230 309.712677,107.961868
	C314.106750,105.607361 318.500793,103.252853 323.575287,100.788040
	C326.033051,99.187645 328.490845,97.587242 331.668945,95.936974
	C336.479706,93.174538 341.290497,90.412094 346.101257,87.649658
	C345.874878,87.176933 345.648468,86.704201 345.422089,86.231468
	C343.179840,86.821564 340.937622,87.411659 337.594757,88.291405
	C339.148499,85.481560 340.073914,83.807968 341.700226,81.923027
	C343.799713,80.263397 345.899231,78.603767 348.751556,76.890190
	C353.895660,73.944672 359.039734,70.999161 364.785004,68.083748
	C365.736786,67.862724 367.347839,67.876839 367.525177,67.379608
	C368.255859,65.330772 362.515869,60.751945 359.209686,61.170689
	C358.397400,60.222317 357.585144,59.273941 356.862671,57.610271
	C355.903839,57.421276 354.944977,57.232281 353.350708,56.964859
	C352.544403,56.315678 351.738129,55.666500 351.603485,54.922810
	C351.866333,54.320129 352.129181,53.717449 352.392029,53.114758
	C351.203400,52.784657 350.014771,52.454556 348.119812,52.133976
	C346.094788,51.083237 344.069763,50.032497 341.972015,48.482151
	C341.964844,48.313953 341.957703,48.145756 342.584839,47.998711
	C343.114258,47.885147 343.643677,47.771584 344.173096,47.658020
	C344.152771,47.487072 344.132446,47.316124 344.112122,47.145176
	C343.345093,47.145176 342.578033,47.145176 341.158630,47.129688
	C340.427917,46.758091 339.697174,46.386497 339.551422,45.947620
	C339.864868,45.547470 340.178345,45.147316 340.491791,44.747169
	C340.230621,44.656929 339.768433,44.446449 339.739349,44.495041
	C339.447235,44.983418 339.226196,45.514317 338.338654,45.785400
	C337.238495,45.490311 336.138367,45.195221 334.544647,44.869656
	C334.544647,44.869656 334.052460,44.917679 334.007568,44.992756
z"/>
<path fill="#81C7C6" opacity="1.000000" stroke="none"
	d="
M353.264313,126.154991
	C354.763794,125.324532 356.263275,124.494064 357.892456,123.364914
	C358.022125,123.066216 358.115021,123.121399 358.115021,123.121399
	C358.115021,123.121399 358.573029,123.135025 359.010498,123.010895
	C359.747894,122.763824 359.946930,122.547867 360.045013,122.238899
	C361.001740,121.718201 361.958466,121.197502 363.441223,120.344254
	C369.279877,116.960724 374.592468,113.909752 380.192871,111.132736
	C380.322723,115.937057 380.164825,120.467422 379.742584,125.201843
	C379.317200,126.268974 379.156158,127.132050 378.626770,128.000519
	C375.994537,129.556732 373.915405,131.562317 371.431458,132.571426
	C364.512054,135.382401 357.419708,137.766296 350.405579,140.345901
	C346.260376,141.870407 341.941284,143.076920 338.054565,145.105103
	C334.324097,147.051758 330.906738,148.291428 326.996857,145.608536
	C326.966675,144.697342 326.942078,144.176270 326.917480,143.655182
	C326.917480,143.655182 326.910034,143.270691 327.232483,143.098328
	C327.954224,142.604599 328.353516,142.283218 328.752808,141.961853
	C328.879333,141.596191 329.005859,141.230530 329.054321,140.545166
	C328.976288,140.225479 329.057648,140.219177 329.057648,140.219177
	C329.496460,140.221512 329.935303,140.223877 330.916077,140.054993
	C331.763947,139.755753 331.970917,139.535019 332.078979,139.221558
	C332.078979,139.221558 332.546570,139.079330 333.029327,138.904602
	C334.043823,138.248505 334.575531,137.767136 335.107269,137.285751
	C335.107269,137.285751 335.568939,137.150986 336.074768,136.962311
	C337.390533,136.197037 338.200409,135.620453 339.272491,134.955444
	C339.789978,134.605042 340.045258,134.343109 340.564636,134.067902
	C341.234497,133.754852 341.640320,133.455063 342.046143,133.155273
	C342.214600,133.109924 342.383057,133.064545 343.008179,132.860657
	C343.735168,132.541199 343.926392,132.313751 344.038513,132.019760
	C344.377136,131.831009 344.715729,131.642258 345.256470,131.079193
	C345.458588,130.704880 345.538147,130.450607 345.538147,130.450607
	C345.538147,130.450607 345.880005,130.541718 346.345459,130.390747
	C347.214325,130.065567 347.617798,129.891357 348.021240,129.717163
	C348.380219,129.459610 348.739197,129.202057 349.511108,128.623459
	C351.037476,127.586609 352.150879,126.870804 353.264313,126.154991
z"/>
<path fill="#BFC8D6" opacity="1.000000" stroke="none"
	d="
M356.772888,58.325562
	C357.585144,59.273941 358.397400,60.222317 359.572296,61.513062
	C361.351227,63.921509 362.767517,65.987579 364.183838,68.053650
	C359.039734,70.999161 353.895660,73.944672 348.437622,76.564972
	C352.277893,74.348877 351.802155,70.147552 352.813416,66.717422
	C353.308685,65.037384 353.494171,63.266014 353.819885,61.535992
	C352.041687,62.365021 350.156616,63.029549 348.527344,64.087906
	C347.623840,64.674820 347.352539,66.358543 346.440002,66.784378
	C343.897644,67.970764 340.931671,69.942810 338.561493,69.467583
	C332.863983,68.325218 328.454102,68.728264 326.056580,75.021538
	C323.235382,71.152641 320.674683,68.982529 315.853333,71.190392
	C313.571045,72.235542 310.295288,71.110817 307.469604,70.970108
	C304.684937,70.831436 301.888000,70.474640 299.119476,70.628197
	C297.060638,70.742393 295.038483,71.518639 292.992432,71.633301
	C291.394012,68.901573 291.394012,68.901573 289.183258,71.550095
	C290.621765,71.719658 291.810883,71.859825 292.963379,72.351997
	C291.638519,74.730072 290.350250,76.756157 288.863373,79.094658
	C286.507721,76.918915 284.394043,74.966667 283.284424,73.941803
	C284.185944,70.742294 284.823456,68.479805 285.460968,66.217316
	C282.897400,65.788200 280.247864,64.752464 277.794342,65.100082
	C275.326141,65.449783 272.992310,67.065407 270.707642,68.322655
	C266.617523,70.573418 263.895935,69.898430 261.059448,66.085213
	C260.330505,65.105255 258.890472,64.172432 257.713715,64.086617
	C250.740417,63.578087 245.820877,66.693260 242.574936,73.058273
	C241.116318,73.015045 240.054779,72.991013 238.919800,72.603874
	C236.684647,70.596741 234.605820,69.664368 232.545837,72.939568
	C220.877060,73.884636 209.668579,74.723274 198.490433,75.860374
	C197.270172,75.984505 196.224777,77.827774 194.743958,78.909210
	C193.915207,78.962372 193.440765,78.979980 192.611526,79.003105
	C191.782318,79.037292 191.307922,79.065964 190.538818,79.249931
	C188.841476,79.915024 187.438828,80.424820 185.695450,80.890991
	C184.898819,80.847054 184.442902,80.846756 183.731079,80.600479
	C181.009613,81.296425 178.544052,82.238335 176.046173,83.148819
	C176.013870,83.117393 176.103607,83.108841 175.714676,83.068436
	C174.544830,83.018585 173.763931,83.009148 172.676270,82.845718
	C169.223495,79.690460 164.433746,77.483925 159.944519,76.953392
	C159.454376,76.895477 158.973740,76.761284 158.486038,76.678123
	C150.048737,75.239677 141.671799,74.555168 133.447098,77.942665
	C132.201889,78.455536 130.550369,78.436165 129.197662,78.146019
	C125.582428,77.370567 122.071785,76.042603 118.435532,75.449181
	C115.142166,74.911705 111.737953,75.053490 108.123711,74.883606
	C108.823120,68.646912 109.153938,63.072525 104.082420,59.045254
	C104.170288,58.725155 104.339745,58.456528 105.100647,57.980904
	C106.711159,56.460911 107.811821,55.199390 108.912476,53.937866
	C110.856216,52.855984 112.799965,51.774109 115.221107,50.261414
	C116.771339,49.525223 117.844177,49.219849 118.745979,49.220894
	C118.443184,51.226372 118.018951,52.985329 118.347549,54.590134
	C118.454185,55.110916 120.611069,55.645439 121.689659,55.439114
	C123.647560,55.064590 125.500130,54.139400 127.757950,53.311584
	C127.744492,53.253475 127.579506,52.476574 127.383919,51.707451
	C126.497719,48.222717 127.893486,45.795330 131.077911,44.532753
	C134.956360,42.994995 135.658249,46.735062 136.613190,48.733063
	C139.735855,55.266567 141.270630,56.093658 148.220276,53.945065
	C150.761673,53.159348 153.579544,51.939285 155.981644,52.406513
	C158.366226,52.870342 160.386505,55.207279 162.334030,56.561127
	C166.839813,56.124187 171.679367,55.654884 176.061295,55.229958
	C183.501022,56.503067 190.449417,56.178036 197.666245,53.520485
	C197.958984,54.361534 198.495667,55.384548 198.635727,56.459251
	C198.762787,57.434223 198.457870,58.465492 198.343414,59.471935
	C198.705658,59.691360 199.067902,59.910786 199.430145,60.130211
	C200.927139,58.462414 202.258560,56.594582 203.966141,55.181213
	C205.794174,53.668148 207.976547,52.583179 210.004257,51.311359
	C209.807983,53.715118 209.601028,56.118111 209.429306,58.523628
	C209.408524,58.814743 209.577988,59.119438 209.894501,60.281261
	C212.600388,59.363918 216.578522,59.222755 217.659775,57.380943
	C219.534348,54.187820 221.580826,53.558029 224.760864,53.531040
	C224.607712,55.443787 224.484573,56.981792 224.352539,58.630913
	C229.104706,59.275082 233.485794,60.670212 237.240677,56.656033
	C237.682556,56.183659 240.457657,56.814274 240.939651,57.640404
	C243.406830,61.869064 246.634521,60.784492 249.773315,59.117245
	C252.155075,57.852112 254.234161,56.017128 256.672424,54.275337
	C257.601440,54.882027 258.776428,55.509914 259.790314,56.335648
	C264.143646,59.881142 267.458160,59.507874 272.774170,57.047749
	C277.658020,54.787601 283.012878,51.477066 288.426239,56.028740
	C294.357300,50.427460 297.718262,50.551895 303.762421,56.234077
	C306.052612,58.387146 308.359650,60.582985 310.946167,62.335606
	C312.326141,63.270683 315.631653,64.000641 315.827271,63.632500
	C317.482910,60.516602 319.984741,61.918404 322.220947,62.008568
	C324.571594,62.103344 327.151794,62.970592 329.217224,62.273033
	C333.055145,60.976833 336.591949,58.789055 340.075684,57.060986
	C344.238678,60.920223 345.407959,60.625546 350.247009,55.002228
	C350.475098,55.013504 350.931824,55.017319 350.931824,55.017319
	C351.738129,55.666500 352.544403,56.315678 353.842834,57.276257
	C355.147614,57.833622 355.960236,58.079590 356.772888,58.325562 z"/>
<path fill="#CBD3DF" opacity="1.000000" stroke="none"
	d="
M253.000000,36.000305
	C252.833237,36.000042 252.666458,35.999783 251.931427,35.840633
	C245.853622,32.895699 240.171677,33.696373 235.184662,36.332119
	C231.533997,38.261574 228.368042,37.854301 225.313110,36.463638
	C221.762802,34.847481 218.801575,34.837837 215.387466,36.672626
	C214.085815,37.372162 211.732742,37.308037 210.423264,36.578640
	C206.349457,34.309498 202.546021,31.554991 199.142563,29.320242
	C195.757324,31.548704 193.117416,33.677673 190.137436,35.088196
	C188.576416,35.827087 185.197708,36.018047 184.738571,35.231449
	C182.574051,31.523188 181.118484,27.397589 179.586639,23.353941
	C179.561340,23.287109 181.796967,22.444845 182.913757,21.845568
	C184.652740,20.912420 186.336929,19.877182 188.044342,18.885216
	C188.466110,18.903042 188.887878,18.920866 189.846588,19.204815
	C191.590607,18.971409 192.797699,18.471876 194.004776,17.972345
	C202.724564,16.665871 211.444366,15.359396 221.057388,14.051058
	C228.616760,14.051765 235.282913,14.054337 242.209061,14.068495
	C242.642242,14.090898 242.815430,14.101714 243.243347,14.359776
	C244.680130,14.694729 245.862152,14.782434 247.044189,14.870140
	C255.011002,15.964367 262.973846,17.089211 270.948334,18.124035
	C272.350586,18.305998 273.801758,18.110933 275.657776,18.370960
	C276.732574,19.073521 277.379944,19.495108 278.027313,19.916702
	C278.769806,19.957922 279.512268,19.999136 280.849609,20.311314
	C283.965637,21.384634 286.486877,22.186993 289.008087,22.989349
	C289.442841,23.025366 289.877594,23.061382 290.757507,23.321360
	C291.421539,23.784687 291.690796,23.932194 292.010437,23.987846
	C293.922424,24.760860 295.834381,25.533875 297.761139,26.733387
	C298.184753,27.772711 298.593597,28.385540 298.847839,29.303829
	C296.227692,32.421116 293.762207,35.232941 290.692505,38.733826
	C287.977631,38.577820 283.826569,38.897575 279.988647,37.949543
	C276.666962,37.129025 273.732025,34.673790 270.726624,38.437977
	C270.431854,38.807144 269.057831,38.753174 268.502380,38.398376
	C266.310455,36.998158 263.765930,35.766068 262.250702,33.784542
	C260.222168,31.131760 258.474304,31.761322 256.420319,33.160141
	C255.201004,33.990547 254.134949,35.046021 253.000000,36.000305 z"/>
</svg>
